<svg version="1.1" viewBox="0.0 0.0 291.49343832021 362.12335958005247" fill="none" stroke="none" stroke-linecap="square" stroke-miterlimit="10" xmlns:xlink="http://www.w3.org/1999/xlink" xmlns="http://www.w3.org/2000/svg"><clipPath id="p.0"><path d="m0 0l291.49344 0l0 362.12335l-291.49344 0l0 -362.12335z" clip-rule="nonzero"/></clipPath><g clip-path="url(#p.0)"><path fill="#000000" fill-opacity="0.0" d="m0 0l291.49344 0l0 362.12335l-291.49344 0z" fill-rule="evenodd"/><path fill="#fff2cc" d="m26.44357 185.68767l0 0c0 -96.13234 58.195934 -174.06299 129.98425 -174.06299l0 0c34.47397 0 67.535965 18.338726 91.912735 50.98187c24.376785 32.643147 38.071518 76.91675 38.071518 123.08113l0 0c0 96.13234 -58.19594 174.063 -129.98425 174.063l0 0c-71.78832 0 -129.98425 -77.930664 -129.98425 -174.063z" fill-rule="evenodd"/><path fill="#000000" fill-opacity="0.0" d="m174.84033 325.729c-2.5242767 0.15420532 -11.350616 2.1004333 -15.145615 0.9251404c-3.7949982 -1.1752625 -6.353653 -6.647339 -7.6243896 -7.9768066" fill-rule="evenodd"/><path stroke="#000000" stroke-width="1.0" stroke-linejoin="round" stroke-linecap="butt" d="m174.84033 325.729c-2.5242767 0.15420532 -11.350616 2.1004333 -15.145615 0.9251404c-3.7949982 -1.1752625 -6.353653 -6.647339 -7.6243896 -7.9768066" fill-rule="evenodd"/><path fill="#ffffff" d="m79.77428 141.06561l0 0c0 -7.705887 13.734634 -13.952751 30.67717 -13.952751l0 0c16.942528 0 30.67717 6.2468643 30.67717 13.952751l0 0c0 7.705902 -13.734642 13.952759 -30.67717 13.952759l0 0c-16.942535 0 -30.67717 -6.2468567 -30.67717 -13.952759z" fill-rule="evenodd"/><path fill="#6fa8dc" d="m104.32021 141.06824l0 0c0 -7.705887 3.4971085 -13.952751 7.81102 -13.952751l0 0c2.0716095 0 4.05838 1.4700241 5.5232315 4.0866623c1.4648514 2.6166534 2.287796 6.1655884 2.287796 9.866089l0 0c0 7.705902 -3.497116 13.952759 -7.8110275 13.952759l0 0c-4.3139114 0 -7.81102 -6.2468567 -7.81102 -13.952759z" fill-rule="evenodd"/><path fill="#000000" d="m106.82415 141.06561l0 0c0 -2.61792 2.3760605 -4.740158 5.307083 -4.740158l0 0c2.9310226 0 5.3070908 2.1222382 5.3070908 4.740158l0 0c0 2.61792 -2.376068 4.740158 -5.3070908 4.740158l0 0c-2.9310226 0 -5.307083 -2.1222382 -5.307083 -4.740158z" fill-rule="evenodd"/><path fill="#fff2cc" d="m139.6614 128.41513l-1.5258789E-5 6.511383c0 -0.7192383 -13.077148 -1.3022766 -29.208641 -1.3022766c-16.131493 0 -29.208656 0.58303833 -29.208656 1.3022766l1.5258789E-5 -6.511383l0 0c0 -0.719223 13.077164 -1.302269 29.208656 -1.302269c16.131493 0 29.208656 0.58304596 29.208641 1.302269z" fill-rule="evenodd"/><path fill="#ffffff" d="m172.61417 141.0643l0 0c0 -7.705887 13.734634 -13.952751 30.67717 -13.952751l0 0c16.942535 0 30.67717 6.2468643 30.67717 13.952751l0 0c0 7.705902 -13.734634 13.952759 -30.67717 13.952759l0 0c-16.942535 0 -30.67717 -6.2468567 -30.67717 -13.952759z" fill-rule="evenodd"/><path fill="#6fa8dc" d="m197.16011 141.06693l0 0c0 -7.705887 3.497116 -13.952751 7.81102 -13.952751l0 0c2.0716095 0 4.05838 1.4700241 5.523224 4.0866623c1.464859 2.6166534 2.287796 6.1655884 2.287796 9.866089l0 0c0 7.705902 -3.497116 13.952759 -7.81102 13.952759l0 0c-4.313904 0 -7.81102 -6.2468567 -7.81102 -13.952759z" fill-rule="evenodd"/><path fill="#000000" d="m199.66405 141.0643l0 0c0 -2.61792 2.3760529 -4.740158 5.307083 -4.740158l0 0c2.931015 0 5.307083 2.1222382 5.307083 4.740158l0 0c0 2.61792 -2.376068 4.740158 -5.307083 4.740158l0 0c-2.9310303 0 -5.307083 -2.1222382 -5.307083 -4.740158z" fill-rule="evenodd"/><path fill="#fff2cc" d="m232.50131 128.41382l-1.5258789E-5 6.511383c0 -0.7192383 -13.077164 -1.3022766 -29.208649 -1.3022766c-16.1315 0 -29.208664 0.58303833 -29.208664 1.3022766l1.5258789E-5 -6.511383l0 0c1.5258789E-5 -0.719223 13.077164 -1.302269 29.208664 -1.302269c16.131485 0 29.208649 0.58304596 29.208649 1.302269z" fill-rule="evenodd"/><path fill="#000000" fill-opacity="0.0" d="m152.29974 136.04199c0 17.99199 0.61009216 37.117065 -6.6955414 53.55905c-3.8869934 8.748032 -14.034348 16.933273 -11.713913 26.220474c2.755661 11.029144 22.663315 2.2309723 34.031494 2.2309723" fill-rule="evenodd"/><path stroke="#000000" stroke-width="1.0" stroke-linejoin="round" stroke-linecap="butt" d="m152.29974 136.04199c0 17.99199 0.61009216 37.117065 -6.6955414 53.55905c-3.8869934 8.748032 -14.034348 16.933273 -11.713913 26.220474c2.755661 11.029144 22.663315 2.2309723 34.031494 2.2309723" fill-rule="evenodd"/><path fill="#bf9000" d="m250.45676 121.85896c0.012161255 -1.3977737 -37.22148 -12.919319 -50.761093 -12.650841c-13.539627 0.26848602 -30.464462 12.86396 -30.476624 14.261734c-0.012161255 1.3977814 16.864029 -5.6065826 30.403656 -5.8750687c13.539612 -0.2684784 50.8219 5.661957 50.83406 4.2641754z" fill-rule="evenodd"/><path fill="#bf9000" d="m66.51676 119.4931c-0.041519165 -1.4548721 35.863327 -12.6564865 49.01451 -12.090385c13.151176 0.5661011 29.851067 14.03212 29.892586 15.486992c0.041519165 1.4548721 -16.49228 -6.191658 -29.64347 -6.757759c-13.151176 -0.5661011 -49.2221 4.816025 -49.263626 3.3611526z" fill-rule="evenodd"/><path fill="#7f6000" d="m227.64143 75.5328c-0.21014404 10.388649 16.887177 39.96177 23.691849 51.352425c6.8046875 11.39064 12.384216 15.999725 17.13617 16.99147c4.7519836 0.99176025 7.915161 -8.656769 11.37561 -11.04097c3.4604187 -2.384201 9.567413 2.5979004 9.386993 -3.2641907c-0.1803894 -5.8620987 -4.3631287 -21.072021 -10.469452 -31.908386c-6.1063232 -10.836365 -17.648254 -29.421417 -26.168457 -33.10981c-8.520187 -3.6883888 -24.742569 0.5908127 -24.952713 10.979462z" fill-rule="evenodd"/><path fill="#7f6000" d="m50.946255 115.84615c0.29910278 8.64341 -3.6512032 28.277412 -6.337322 32.681053c-2.686119 4.403656 -6.3974953 -5.5747833 -9.779388 -6.25914c-3.3818913 -0.6843567 -9.790506 5.7505035 -10.511969 2.1529694c-0.72146225 -3.597519 3.1004066 -15.7790985 6.183199 -23.738144c3.0827904 -7.959053 8.905964 -23.210014 12.313545 -24.016136c3.4075775 -0.8061218 7.8328323 10.535988 8.131935 19.179398z" fill-rule="evenodd"/><path fill="#bf9000" d="m51.46025 113.50552c0.29910278 8.64341 -3.6512032 28.277405 -6.337322 32.68106c-2.686119 4.403656 -6.3974953 -5.5747833 -9.779388 -6.25914c-3.3818913 -0.68437195 -9.790506 5.7505035 -10.511969 2.1529694c-0.72146225 -3.5975342 3.1004086 -15.779106 6.183199 -23.738152c3.0827904 -7.9590454 8.905964 -23.210014 12.313545 -24.016136c3.4075813 -0.8061218 7.832836 10.535988 8.131935 19.179398z" fill-rule="evenodd"/><path fill="#bf9000" d="m227.1574 72.581924c-0.21014404 10.388649 16.887177 39.96177 23.691849 51.352425c6.804657 11.390648 12.384216 15.999718 17.13617 16.991478c4.751953 0.991745 7.915161 -8.656784 11.37558 -11.040985c3.4604492 -2.3841858 9.567444 2.5979004 9.387024 -3.2641907c-0.18041992 -5.862091 -4.363159 -21.072014 -10.469482 -31.908379c-6.1063232 -10.836365 -17.648254 -29.421417 -26.168442 -33.10981c-8.520187 -3.6883888 -24.742554 0.5908127 -24.952698 10.979462z" fill-rule="evenodd"/><path fill="#7f6000" d="m223.1934 79.44719c14.320435 -0.9026108 18.526672 -13.037094 24.635315 -18.65327c6.108658 -5.616173 12.51741 -8.524525 12.016617 -15.043777c-0.500824 -6.5192566 -4.7065735 -17.050941 -15.021469 -24.071749c-10.314896 -7.020808 -28.742142 -16.04736 -46.867874 -18.053102c-18.125732 -2.005743 -43.860657 1.5051329 -61.88652 6.0186453c-18.025848 4.5135117 -32.4485 11.835346 -46.268593 21.062426c-13.820084 9.2270775 -27.03854 23.167725 -36.65192 34.30005c-9.61338 11.132317 -14.418892 24.269913 -21.028355 32.49388c-6.6094627 8.223976 -13.32069 13.038986 -18.628426 16.849945c-5.3077345 3.8109589 -14.319483 4.210594 -13.217984 6.015808c1.1014987 1.8052216 10.9141655 6.720726 19.826977 4.815483c8.912811 -1.9052429 19.629574 -6.6188126 33.64989 -16.24694c14.020313 -9.628136 32.446156 -34.401016 50.472004 -41.52186c18.025856 -7.1208344 37.85472 -3.2089005 57.683105 -1.2031631c19.828384 2.005745 46.966812 14.140236 61.28723 13.237625z" fill-rule="evenodd"/><path fill="#bf9000" d="m223.1934 76.47868c14.320435 -0.90260315 18.526672 -13.037094 24.635315 -18.653267c6.108658 -5.6161766 12.51741 -8.524525 12.016617 -15.043781c-0.500824 -6.519253 -4.7065735 -17.05094 -15.021469 -24.071747c-10.314896 -7.020808 -28.742142 -16.04736 -46.867874 -18.053102c-18.125732 -2.005743 -43.860657 1.5051332 -61.88652 6.0186443c-18.025848 4.513512 -32.4485 11.835346 -46.268593 21.062426c-13.820084 9.227079 -27.03854 23.167723 -36.65192 34.30005c-9.61338 11.132324 -14.418892 24.269913 -21.028355 32.49389c-6.6094627 8.2239685 -13.32069 13.038979 -18.628426 16.849937c-5.3077345 3.8109589 -14.319483 4.210594 -13.217984 6.0158157c1.1014987 1.8052139 10.9141655 6.720726 19.826977 4.8154755c8.912811 -1.9052429 19.629574 -6.618805 33.64989 -16.24694c14.020313 -9.628136 32.446156 -34.401016 50.472004 -41.52185c18.025856 -7.120838 37.85472 -3.208908 57.683105 -1.203167c19.828384 2.0057411 46.966812 14.140232 61.28723 13.237621z" fill-rule="evenodd"/><path fill="#000000" d="m198.73878 248.4845l0 0c5.997986 13.336792 1.4042969 27.731598 -11.547699 36.185883c-12.952011 8.454285 -31.57544 9.214264 -46.815964 1.9104309c-15.240509 -7.303833 -23.936485 -21.15628 -21.860092 -34.822586z" fill-rule="evenodd"/></g></svg>