<svg xmlns="http://www.w3.org/2000/svg" xmlns:xlink="http://www.w3.org/1999/xlink" width="41" height="39" viewBox="0 0 41 39"><defs><path id="zunma" d="M27.8 46.4c-3.65-.03-7.3-.09-10.92-.87a13.32 13.32 0 0 0-5.91-.11 6.7 6.7 0 0 0-1.67.53c-1.96 1.08-4 .95-6.04.37a3.78 3.78 0 0 1-2.92-3.47 9.46 9.46 0 0 1 .54-4.61 4 4 0 0 1 3.59-2.66c1.08-.1 1.08-.1.77-1.2a8.07 8.07 0 0 1-.33-3.96c.4-1.88 1.63-2.96 3.4-3.46.69-.2.79-.39.64-1.08-.76-3.73.8-6.63 4.35-8.11.72-.3 1.03-.48.74-1.4-.65-2.07-.22-2.95 1.63-4.13.84-.54 1.2-1.72.9-3-.08-.41-.13-.82-.2-1.24.39.14.78.24 1.14.42 2.33 1.1 4.62 2.28 6.56 3.99.87.77 1.66 1.64 2.32 2.6a3.9 3.9 0 0 1 .35 4.08c-.4.8.02.85.6.97.62.1 1.23.27 1.83.48 2.1.84 2.98 2.29 2.73 4.68-.08.79.04 1.15.86 1.46 3.45 1.32 4.58 3.88 3.4 7.46-.43 1.31-.42 1.29.9 1.81.68.26 1.33.58 1.92.98a4.63 4.63 0 0 1 .58 7.15 8.29 8.29 0 0 1-5.12 2.18c-.86.09-1.72.12-2.58.13-1.34.02-2.7 0-4.06 0zm-9.4-16.68c0-1.88-.54-3.48-1.47-4.55-1.8-2.05-4.47-2-6.2.1a7.1 7.1 0 0 0 .07 8.6 3.87 3.87 0 0 0 6.11 0 6.12 6.12 0 0 0 1.5-4.15zm2.27 7.63h-6.64c-.21.02-.43.04-.64.08.07.2.17.38.3.54.92.85 1.81 1.75 2.8 2.51a6.6 6.6 0 0 0 4.16 1.4c3.13-.05 5.28-1.8 7.13-4.07.4-.48 0-.47-.33-.47z"/><path id="zunmb" d="M18.4 29.72c.05 1.52-.49 3-1.49 4.15a3.88 3.88 0 0 1-6.1 0 7.1 7.1 0 0 1-.08-8.6c1.73-2.1 4.4-2.15 6.2-.1a6.78 6.78 0 0 1 1.48 4.55zm-6.14 2.62a2.25 2.25 0 0 0 3.17.04c1.55-1.37 1.51-4.45-.07-5.77a2.19 2.19 0 0 0-3.05.05c-.7.61-1.11 1.48-1.14 2.4-.03 1.58.36 2.6 1.09 3.28z"/><path id="zunmc" d="M20.67 37.35h6.8c.33 0 .72 0 .32.47-1.85 2.27-4 4.02-7.13 4.08a6.6 6.6 0 0 1-4.15-1.4c-1-.76-1.9-1.66-2.8-2.52a1.98 1.98 0 0 1-.31-.54c.21-.03.43-.06.64-.07 2.2-.02 4.42-.02 6.63-.02z"/><path id="zunmd" d="M11.17 29.06c.03-.92.44-1.79 1.14-2.4a2.19 2.19 0 0 1 3.05-.05c1.59 1.33 1.63 4.4.07 5.77a2.25 2.25 0 0 1-3.17-.03c-.73-.68-1.13-1.71-1.09-3.29z"/><path id="zunme" d="M23.17 29.62c0-3.3 1.97-5.96 4.39-5.96s4.39 2.67 4.39 5.96c0 3.3-1.97 5.96-4.39 5.96s-4.39-2.67-4.39-5.96z"/><path id="zunmf" d="M30.3 29.7c-.51 4.67-5.94 3.69-5.25-.82.24-1.53 1.27-3.08 3.02-2.8 1.87.3 2.1 2.09 2.22 3.63z"/></defs><g><g transform="translate(0 -8)"><g><use fill="#603913" xlink:href="#zunma"/></g><g><use fill="#fefefe" xlink:href="#zunmb"/></g><g><use fill="#fefefe" xlink:href="#zunmc"/></g><g><use fill="#262122" xlink:href="#zunmd"/></g><g><use fill="#fefefe" xlink:href="#zunme"/></g><g><use fill="#262122" xlink:href="#zunmf"/></g></g></g></svg>