<svg version="1.1" viewBox="0.0 0.0 707.3858267716536 427.4146981627297" fill="none" stroke="none" stroke-linecap="square" stroke-miterlimit="10" xmlns:xlink="http://www.w3.org/1999/xlink" xmlns="http://www.w3.org/2000/svg"><clipPath id="p.0"><path d="m0 0l707.3858 0l0 427.4147l-707.3858 0l0 -427.4147z" clip-rule="nonzero"/></clipPath><g clip-path="url(#p.0)"><path fill="#000000" fill-opacity="0.0" d="m0 0l707.3858 0l0 427.4147l-707.3858 0z" fill-rule="evenodd"/><path fill="#fce5cd" d="m0 0l706.3937 0l0 427.3071l-706.3937 0z" fill-rule="evenodd"/><path fill="#000000" fill-opacity="0.0" d="m352.58267 33.968502l1.228363 359.3701" fill-rule="evenodd"/><path stroke="#000000" stroke-width="3.0" stroke-linejoin="round" stroke-linecap="butt" d="m352.58267 33.968502l1.228363 359.3701" fill-rule="evenodd"/><path fill="#000000" fill-opacity="0.0" d="m411.25198 229.48819l234.64566 -1.2283478" fill-rule="evenodd"/><path stroke="#000000" stroke-width="2.0" stroke-linejoin="round" stroke-linecap="butt" d="m411.25198 229.48819l234.64566 -1.2283478" fill-rule="evenodd"/><path fill="#000000" fill-opacity="0.0" d="m411.25198 151.85039l234.64566 -1.2283478" fill-rule="evenodd"/><path stroke="#000000" stroke-width="2.0" stroke-linejoin="round" stroke-linecap="butt" d="m411.25198 151.85039l234.64566 -1.2283478" fill-rule="evenodd"/><path fill="#000000" fill-opacity="0.0" d="m411.25198 177.72966l234.64566 -1.2283478" fill-rule="evenodd"/><path stroke="#000000" stroke-width="2.0" stroke-linejoin="round" stroke-linecap="butt" d="m411.25198 177.72966l234.64566 -1.2283478" fill-rule="evenodd"/><path fill="#000000" fill-opacity="0.0" d="m411.25198 203.60892l234.64566 -1.2283325" fill-rule="evenodd"/><path stroke="#000000" stroke-width="2.0" stroke-linejoin="round" stroke-linecap="butt" d="m411.25198 203.60892l234.64566 -1.2283325" fill-rule="evenodd"/><path fill="#ffffff" d="m615.02625 16.674541l72.8504 0l0 76.566925l-72.8504 0z" fill-rule="evenodd"/><path fill="#fce5cd" d="m609.4698 25.32021l0 0c0 -3.070181 2.4888916 -5.5590553 5.559082 -5.5590553l0 0c1.4743652 0 2.8883057 0.58568573 3.9308472 1.6282101c1.0425415 1.0425243 1.6282349 2.4564934 1.6282349 3.9308453l0 0c0 3.070181 -2.4888916 5.5590553 -5.559082 5.5590553l0 0c-3.0701904 0 -5.559082 -2.4888744 -5.559082 -5.5590553z" fill-rule="evenodd"/><path fill="#fce5cd" d="m609.4698 40.139107l0 0c0 -3.070179 2.4888916 -5.5590553 5.559082 -5.5590553l0 0c1.4743652 0 2.8883057 0.58568573 3.9308472 1.628212c1.0425415 1.0425224 1.6282349 2.4564896 1.6282349 3.9308434l0 0c0 3.0701828 -2.4888916 5.5590553 -5.559082 5.5590553l0 0c-3.0701904 0 -5.559082 -2.4888725 -5.559082 -5.5590553z" fill-rule="evenodd"/><path fill="#fce5cd" d="m609.4698 54.958004l0 0c0 -3.070179 2.4888916 -5.5590553 5.559082 -5.5590553l0 0c1.4743652 0 2.8883057 0.58568573 3.9308472 1.628212c1.0425415 1.0425224 1.6282349 2.4564934 1.6282349 3.9308434l0 0c0 3.0701828 -2.4888916 5.5590553 -5.559082 5.5590553l0 0c-3.0701904 0 -5.559082 -2.4888725 -5.559082 -5.5590553z" fill-rule="evenodd"/><path fill="#fce5cd" d="m609.4698 69.7769l0 0c0 -3.0701828 2.4888916 -5.5590515 5.559082 -5.5590515l0 0c1.4743652 0 2.8883057 0.58568573 3.9308472 1.6282043c1.0425415 1.0425262 1.6282349 2.4564972 1.6282349 3.9308472l0 0c0 3.0701828 -2.4888916 5.559059 -5.559082 5.559059l0 0c-3.0701904 0 -5.559082 -2.4888763 -5.559082 -5.559059z" fill-rule="evenodd"/><path fill="#fce5cd" d="m609.4698 84.5958l0 0c0 -3.0701828 2.4888916 -5.559059 5.559082 -5.559059l0 0c1.4743652 0 2.8883057 0.58568573 3.9308472 1.628212c1.0425415 1.0425262 1.6282349 2.4564896 1.6282349 3.9308472l0 0c0 3.0701828 -2.4888916 5.5590515 -5.559082 5.5590515l0 0c-3.0701904 0 -5.559082 -2.4888687 -5.559082 -5.5590515z" fill-rule="evenodd"/><path fill="#fce5cd" d="m620.58795 94.53281l0 0c0 -3.0701828 2.4888306 -5.5590515 5.559021 -5.5590515l0 0c1.4743652 0 2.8883057 0.58568573 3.9308472 1.6282043c1.0425415 1.0425262 1.6282349 2.4564972 1.6282349 3.9308472l0 0c0 3.0701828 -2.4888916 5.559059 -5.559082 5.559059l0 0c-3.0701904 0 -5.559021 -2.4888763 -5.559021 -5.559059z" fill-rule="evenodd"/><path fill="#fce5cd" d="m637.54333 94.53281l0 0c0 -3.0701828 2.4888306 -5.5590515 5.559021 -5.5590515l0 0c1.4743652 0 2.8883057 0.58568573 3.9308472 1.6282043c1.0425415 1.0425262 1.6282349 2.4564972 1.6282349 3.9308472l0 0c0 3.0701828 -2.4888916 5.559059 -5.559082 5.559059l0 0c-3.0701904 0 -5.559021 -2.4888763 -5.559021 -5.559059z" fill-rule="evenodd"/><path fill="#fce5cd" d="m654.49866 94.53281l0 0c0 -3.0701828 2.4888916 -5.5590515 5.559082 -5.5590515l0 0c1.4743652 0 2.8883057 0.58568573 3.9308472 1.6282043c1.0425415 1.0425262 1.6282349 2.4564972 1.6282349 3.9308472l0 0c0 3.0701828 -2.4888916 5.559059 -5.559082 5.559059l0 0c-3.0701904 0 -5.559082 -2.4888763 -5.559082 -5.559059z" fill-rule="evenodd"/><path fill="#fce5cd" d="m671.45404 94.53281l0 0c0 -3.0701828 2.4888916 -5.5590515 5.559082 -5.5590515l0 0c1.4743652 0 2.8883057 0.58568573 3.9308472 1.6282043c1.0425415 1.0425262 1.6282349 2.4564972 1.6282349 3.9308472l0 0c0 3.0701828 -2.4888916 5.559059 -5.559082 5.559059l0 0c-3.0701904 0 -5.559082 -2.4888763 -5.559082 -5.559059z" fill-rule="evenodd"/><path fill="#fce5cd" d="m682.5722 84.5958l0 0c0 -3.0701828 2.4888306 -5.559059 5.559021 -5.559059l0 0c1.4743652 0 2.8883057 0.58568573 3.9308472 1.628212c1.0425415 1.0425262 1.6282349 2.4564896 1.6282349 3.9308472l0 0c0 3.0701828 -2.4888916 5.5590515 -5.559082 5.5590515l0 0c-3.0701904 0 -5.559021 -2.4888687 -5.559021 -5.5590515z" fill-rule="evenodd"/><path fill="#fce5cd" d="m682.5722 69.7769l0 0c0 -3.0701828 2.4888306 -5.5590515 5.559021 -5.5590515l0 0c1.4743652 0 2.8883057 0.58568573 3.9308472 1.6282043c1.0425415 1.0425262 1.6282349 2.4564972 1.6282349 3.9308472l0 0c0 3.0701828 -2.4888916 5.559059 -5.559082 5.559059l0 0c-3.0701904 0 -5.559021 -2.4888763 -5.559021 -5.559059z" fill-rule="evenodd"/><path fill="#fce5cd" d="m682.5722 54.958004l0 0c0 -3.070179 2.4888306 -5.5590553 5.559021 -5.5590553l0 0c1.4743652 0 2.8883057 0.58568573 3.9308472 1.628212c1.0425415 1.0425224 1.6282349 2.4564934 1.6282349 3.9308434l0 0c0 3.0701828 -2.4888916 5.5590553 -5.559082 5.5590553l0 0c-3.0701904 0 -5.559021 -2.4888725 -5.559021 -5.5590553z" fill-rule="evenodd"/><path fill="#fce5cd" d="m682.5722 40.139107l0 0c0 -3.070179 2.4888306 -5.5590553 5.559021 -5.5590553l0 0c1.4743652 0 2.8883057 0.58568573 3.9308472 1.628212c1.0425415 1.0425224 1.6282349 2.4564896 1.6282349 3.9308434l0 0c0 3.0701828 -2.4888916 5.5590553 -5.559082 5.5590553l0 0c-3.0701904 0 -5.559021 -2.4888725 -5.559021 -5.5590553z" fill-rule="evenodd"/><path fill="#fce5cd" d="m682.5722 25.32021l0 0c0 -3.070181 2.4888306 -5.5590553 5.559021 -5.5590553l0 0c1.4743652 0 2.8883057 0.58568573 3.9308472 1.6282101c1.0425415 1.0425243 1.6282349 2.4564934 1.6282349 3.9308453l0 0c0 3.070181 -2.4888916 5.5590553 -5.559082 5.5590553l0 0c-3.0701904 0 -5.559021 -2.4888744 -5.559021 -5.5590553z" fill-rule="evenodd"/><path fill="#fce5cd" d="m671.45404 15.383203l0 0c0 -3.0701818 2.4888916 -5.5590553 5.559082 -5.5590553l0 0c1.4743652 0 2.8883057 0.5856838 3.9308472 1.6282091c1.0425415 1.0425253 1.6282349 2.4564924 1.6282349 3.9308462l0 0c0 3.0701818 -2.4888916 5.5590544 -5.559082 5.5590544l0 0c-3.0701904 0 -5.559082 -2.4888725 -5.559082 -5.5590544z" fill-rule="evenodd"/><path fill="#fce5cd" d="m654.49866 15.383203l0 0c0 -3.0701818 2.4888916 -5.5590553 5.559082 -5.5590553l0 0c1.4743652 0 2.8883057 0.5856838 3.9308472 1.6282091c1.0425415 1.0425253 1.6282349 2.4564924 1.6282349 3.9308462l0 0c0 3.0701818 -2.4888916 5.5590544 -5.559082 5.5590544l0 0c-3.0701904 0 -5.559082 -2.4888725 -5.559082 -5.5590544z" fill-rule="evenodd"/><path fill="#fce5cd" d="m637.54333 15.383203l0 0c0 -3.0701818 2.4888306 -5.5590553 5.559021 -5.5590553l0 0c1.4743652 0 2.8883057 0.5856838 3.9308472 1.6282091c1.0425415 1.0425253 1.6282349 2.4564924 1.6282349 3.9308462l0 0c0 3.0701818 -2.4888916 5.5590544 -5.559082 5.5590544l0 0c-3.0701904 0 -5.559021 -2.4888725 -5.559021 -5.5590544z" fill-rule="evenodd"/><path fill="#fce5cd" d="m620.58795 15.383203l0 0c0 -3.0701818 2.4888306 -5.5590553 5.559021 -5.5590553l0 0c1.4743652 0 2.8883057 0.5856838 3.9308472 1.6282091c1.0425415 1.0425253 1.6282349 2.4564924 1.6282349 3.9308462l0 0c0 3.0701818 -2.4888916 5.5590544 -5.559082 5.5590544l0 0c-3.0701904 0 -5.559021 -2.4888725 -5.559021 -5.5590544z" fill-rule="evenodd"/><path fill="#b4a7d6" d="m626.75854 25.317585l50.456665 0l0 58.3622l-50.456665 0z" fill-rule="evenodd"/><path fill="#000000" fill-opacity="0.0" d="m16.04987 16.674541l234.64568 0l0 92.50394l-234.64568 0z" fill-rule="evenodd"/><path fill="#000000" d="m30.752995 55.144543q0 0.546875 -0.359375 0.90625q-0.359375 0.34375 -0.890625 0.34375q-0.546875 0 -0.90625 -0.34375q-0.34375 -0.359375 -0.34375 -0.90625l0 -22.5q0 -0.53125 0.34375 -0.875q0.359375 -0.359375 0.90625 -0.359375l6.390625 0q2.34375 0 4.171875 1.046875q1.84375 1.03125 2.859375 2.875q1.03125 1.828125 1.03125 4.203125q0 2.328125 -1.03125 4.15625q-1.015625 1.828125 -2.859375 2.859375q-1.828125 1.015625 -4.171875 1.015625l-5.140625 0l0 7.578125zm5.140625 -9.984375q1.640625 0 2.921875 -0.71875q1.28125 -0.71875 2.0 -2.0q0.71875 -1.28125 0.71875 -2.90625q0 -1.671875 -0.71875 -2.96875q-0.71875 -1.296875 -2.0 -2.03125q-1.28125 -0.734375 -2.921875 -0.734375l-5.140625 0l0 11.359375l5.140625 0zm23.490295 -14.078125q3.625 0 6.546871 1.671875q2.921875 1.65625 4.5625 4.578125q1.65625 2.90625 1.65625 6.546875q0 3.65625 -1.65625 6.578125q-1.640625 2.921875 -4.5625 4.59375q-2.9218712 1.65625 -6.546871 1.65625q-3.640625 0 -6.5625 -1.65625q-2.90625 -1.671875 -4.5625 -4.59375q-1.640625 -2.921875 -1.640625 -6.578125q0 -3.640625 1.640625 -6.546875q1.65625 -2.921875 4.5625 -4.578125q2.921875 -1.671875 6.5625 -1.671875zm0 2.375q-2.9375 0 -5.296875 1.375q-2.34375 1.375 -3.6875 3.765625q-1.34375 2.375 -1.34375 5.28125q0 2.953125 1.34375 5.34375q1.34375 2.375 3.6875 3.75q2.359375 1.375 5.296875 1.375q2.90625 0 5.265621 -1.375q2.359375 -1.375 3.703125 -3.75q1.34375 -2.390625 1.34375 -5.34375q0 -2.90625 -1.34375 -5.28125q-1.34375 -2.390625 -3.703125 -3.765625q-2.3593712 -1.375 -5.265621 -1.375zm25.597057 -2.375q2.53125 0 4.453125 1.125q1.921875 1.109375 3.015625 2.90625q0.21875 0.359375 0.21875 0.765625q0 0.609375 -0.578125 0.96875q-0.25 0.125 -0.578125 0.125q-0.34375 0 -0.65625 -0.171875q-0.296875 -0.1875 -0.5 -0.5q-1.78125 -2.8125 -5.40625 -2.84375q-2.59375 0 -4.09375 1.09375q-1.5 1.078125 -1.5 3.09375q0 3.734375 6.046875 4.546875q3.96875 0.578125 5.921875 2.4375q1.953125 1.84375 1.953125 4.890625q0 2.234375 -1.09375 3.875q-1.09375 1.625 -2.984375 2.46875q-1.875 0.84375 -4.21875 0.84375q-3.03125 0 -5.390625 -1.28125q-2.34375 -1.296875 -3.375 -3.515625q-0.125 -0.21875 -0.125 -0.5q0 -0.453125 0.328125 -0.75q0.34375 -0.3125 0.921875 -0.3125q0.375 0 0.703125 0.21875q0.34375 0.203125 0.515625 0.578125q0.734375 1.4375 2.4375 2.328125q1.71875 0.875 3.984375 0.875q2.625 0 4.21875 -1.265625q1.609375 -1.265625 1.609375 -3.53125q0 -2.015625 -1.484375 -3.390625q-1.484375 -1.375 -4.46875 -1.765625q-3.703125 -0.453125 -5.84375 -2.3125q-2.125 -1.875 -2.125 -4.59375q0 -1.921875 1.03125 -3.375q1.046875 -1.46875 2.890625 -2.25q1.84375 -0.78125 4.171875 -0.78125zm29.637161 0.328125q0.515625 0 0.828125 0.3125q0.328125 0.3125 0.328125 0.828125q0 0.484375 -0.328125 0.8125q-0.3125 0.3125 -0.828125 0.3125l-7.609375 0l0 21.46875q0 0.515625 -0.359375 0.890625q-0.34375 0.359375 -0.890625 0.359375q-0.515625 0 -0.890625 -0.359375q-0.359375 -0.375 -0.359375 -0.890625l0 -21.46875l-7.59375 0q-0.5 0 -0.828125 -0.3125q-0.3125 -0.328125 -0.3125 -0.8125q0 -0.515625 0.3125 -0.828125q0.328125 -0.3125 0.828125 -0.3125l17.703125 0z" fill-rule="nonzero"/></g></svg>