<svg version="1.1" id="Layer_1" xmlns="http://www.w3.org/2000/svg" xmlns:xlink="http://www.w3.org/1999/xlink" x="0px" y="0px" width="180" height="60"
	 viewBox="0 0 288.2 75.4" style="enable-background:new 0 0 288.2 75.4;" xml:space="preserve">
<style type="text/css">
	.st0{fill:#948A85;}
	.st1{fill:#DF6020;}
	.st2{fill:#893811;}
</style>
<title>Asset 1</title>
<g>
	<path class="st0" d="M19.2,66.2l11.5-11.5l11.5,11.5c2.8,2.8,6.8,1.9,9.8-1.1l0.9-0.9c3-3,3.9-6.9,1-9.8L42.4,43l11.5-11.5
		c2.8-2.8,1.9-6.8-1-9.8L52,20.8c-3-3-6.9-3.9-9.8-1.1L30.7,31.2L19.2,19.8c-2.8-2.8-6.8-1.9-9.8,1l-0.9,0.9c-3,3-3.9,6.9-1.1,9.8
		L19,43L7.5,54.4c-2.8,2.8-1.9,6.8,1.1,9.8l0.9,0.9C12.4,68.1,16.4,69,19.2,66.2"/>
	<path class="st1" d="M31.3,12.3H30c-4.2,0-7.7,2.1-7.7,6.1v4.5l8.3,8.3l8.3-8.3v-4.5C39,14.4,35.6,12.3,31.3,12.3 M55.2,34.7h-4.5
		L42.4,43l8.3,8.3h4.5c4,0,6.2-3.4,6.2-7.7v-1.3C61.4,38.1,59.2,34.7,55.2,34.7 M10.7,34.7H6.2c-4,0-6.2,3.4-6.2,7.7v1.3
		c0,4.2,2.1,7.7,6.2,7.7h4.5L19,43L10.7,34.7z M30.7,54.7L22.4,63v4.5c0,4,3.4,6.2,7.7,6.2h1.3c4.2,0,7.6-2.1,7.6-6.2V63L30.7,54.7z
		"/>
	<polygon class="st2" points="22.4,22.9 22.4,34.7 10.7,34.7 19,43 10.7,51.2 22.4,51.2 22.4,63 30.7,54.7 39,63 39,51.2 50.7,51.2
		42.4,43 50.7,34.7 39,34.7 39,22.9 30.7,31.2 	"/>
	<path class="st1" d="M77.6,59.2c1.6,1.4,3.7,2.2,5.9,2c1.2,0,2.5-0.2,3.6-0.7c1.1-0.5,2-1.2,2.6-2.2c0.7-1.2,1-2.5,1-3.8
		c0-1.3-0.2-2.5-0.8-3.7c-0.6-1.2-1.5-2.2-2.5-3c-1.5-1.2-3.2-2.2-4.9-3c-1.7-0.8-3.3-1.7-4.9-2.8c-1.4-0.9-2.6-1.9-3.7-3.2
		c-1-1.1-1.8-2.4-2.4-3.8c-0.6-1.5-0.9-3-0.8-4.6c-0.1-2.6,0.7-5.1,2.1-7.2c1.5-2.1,3.7-3.6,6.1-4.5c2.9-1.1,6.1-1.6,9.2-1.5
		c1.9,0,3.9,0.1,5.8,0.3c2.1,0.3,4.3,0.7,6.4,1.1v10h-4.8c-0.3-1.5-0.9-3-1.6-4.3c-0.6-1-1.5-1.8-2.6-2.4c-1.2-0.5-2.5-0.8-3.8-0.8
		c-1.2,0-2.4,0.2-3.5,0.7c-1,0.4-1.8,1.1-2.4,2c-0.6,1-0.9,2.1-0.9,3.3c0,1.2,0.2,2.4,0.8,3.5c0.7,1.1,1.5,2.1,2.6,2.8
		c1.7,1.2,3.4,2.3,5.3,3.2c2.4,1.2,4.6,2.6,6.7,4.3c1.5,1.3,2.7,2.8,3.6,4.6c0.8,1.8,1.2,3.8,1.2,5.8c0.1,2.6-0.6,5.1-2,7.3
		c-1.4,2.1-3.4,3.8-5.7,4.8c-2.7,1.2-5.7,1.7-8.7,1.7c-2.4,0-4.9-0.1-7.3-0.4L77.6,59.2z"/>
	<path class="st1" d="M134.6,64.7V21.8h-2.8c-1.1,0-2.1,0.1-3.2,0.5c-0.7,0.3-1.4,0.9-1.9,1.5c-0.6,0.8-1.1,1.8-1.4,2.8
		c-0.4,1.2-0.7,2.3-0.9,3.3h-4.7V17.8h40.4v12.1h-4.7c-0.4-1.5-0.8-2.7-1-3.4c-0.2-0.7-0.5-1.3-0.8-1.9c-0.3-0.5-0.6-0.9-1-1.3
		c-0.3-0.3-0.7-0.6-1.1-0.8c-0.5-0.2-1-0.4-1.5-0.4c-0.8-0.1-1.5-0.2-2.3-0.2h-2.5V56c0,1.2,0,2.1,0.1,2.8c0,0.5,0.2,1,0.4,1.5
		c0.2,0.4,0.4,0.7,0.7,0.9c0.3,0.3,0.7,0.5,1.1,0.7c0.6,0.2,1.3,0.4,1.9,0.5v2.3L134.6,64.7z"/>
	<path class="st1" d="M183.6,56V26.4c0-1.1,0-2-0.1-2.7c0-0.6-0.2-1.2-0.4-1.8c-0.3-0.5-0.6-0.9-1.1-1.1c-0.6-0.3-1.3-0.6-2-0.8
		v-2.3H214v10.9h-4.7c-0.5-1.5-1.1-3-1.9-4.4c-0.5-0.7-1.1-1.4-1.9-1.8c-1.2-0.5-2.5-0.8-3.8-0.7h-7.5v16.5h4.5
		c0.8,0,1.6-0.1,2.4-0.4c0.6-0.3,1.1-0.8,1.4-1.4c0.5-1,0.9-2,1.1-3.1h3.9v14h-3.9c-0.2-1-0.6-2.1-1.1-3c-0.3-0.6-0.8-1.1-1.4-1.5
		c-0.8-0.3-1.6-0.5-2.4-0.5h-4.5v18.3h7.5c0.7,0,1.3,0,2-0.2c0.5-0.1,1-0.3,1.5-0.5c0.5-0.3,0.9-0.6,1.2-1c0.4-0.4,0.8-0.9,1.1-1.4
		c0.4-0.6,0.7-1.3,1-2c0.5-1.1,0.8-2.2,1.1-3.4h4.7l-0.7,12.5h-30.1L183.6,56z"/>
	<path class="st1" d="M288.2,20c-0.9,0.2-1.7,0.6-2.5,1.1c-0.5,0.4-0.8,1-0.9,1.6c-0.2,1.2-0.3,2.4-0.2,3.6v29.8
		c0,1.1,0,2.2,0.2,3.3c0.1,0.7,0.4,1.3,0.8,1.9c0.8,0.6,1.7,1,2.6,1.2v2.3h-17.6v-2.3c0.7-0.2,1.4-0.4,2.1-0.7
		c0.4-0.2,0.7-0.5,0.9-0.8c0.3-0.5,0.4-1,0.5-1.5c0.1-1.1,0.2-2.2,0.2-3.3V39.2c0-1.9,0-4,0.1-6.6s0.1-4.3,0.2-5.4h-0.7
		c-0.3,0.9-0.6,1.8-0.9,2.7s-0.9,2.5-1.7,4.7L262,59.5h-6l-9.7-27.9c-0.6-1.6-1.1-3.1-1.5-4.7h-0.6c0.2,3.8,0.3,8.2,0.4,13.4v15.8
		c0,1.2,0,2.4,0.2,3.5c0.1,0.6,0.5,1.2,1,1.7c0.7,0.6,1.6,0.9,2.5,1.1v2.3H239V26.4c0-1.2,0-2.4-0.2-3.6c-0.1-0.6-0.4-1.2-0.9-1.6
		c-0.8-0.6-1.7-1-2.7-1.2v-2.2h17.1l9.5,28.2L272,17.8h16.1L288.2,20z"/>
	<path class="st0" d="M86.1,4.9c0.2,0.6,0.3,1.3,0.4,1.9h0.2c0-0.6,0.1-1.3,0.2-1.9l1-4.8h2.6l-2.2,9.3h-3L84,5.1
		c-0.2-0.7-0.3-1.4-0.4-2.1h-0.2c-0.1,0.7-0.2,1.4-0.4,2.1l-1.3,4.3h-3l-2.2-9.3H79l1,4.8c0.1,0.6,0.2,1.3,0.2,1.9h0.2
		c0.1-0.6,0.2-1.3,0.4-1.9l1.5-4.8h2.4L86.1,4.9z"/>
	<path class="st0" d="M94.2,0.1h3.1l3.3,9.3h-2.5l-0.7-1.9h-3.3l-0.7,1.9h-2.6L94.2,0.1z M97,5.8l-0.7-2.1c-0.2-0.6-0.3-1-0.4-1.5
		h-0.1c-0.1,0.5-0.3,1-0.4,1.5l-0.8,2.2L97,5.8z"/>
	<path class="st0" d="M104.5,6.3v0.2c0,0.6,0.5,1.2,1.6,1.2c0.9,0,1.4-0.3,1.4-0.9c0-0.4-0.3-0.6-1-0.8l-1.9-0.6
		c-1.4-0.4-2.4-1.1-2.4-2.6s1.3-2.8,3.9-2.8c3.2,0,3.8,1.6,3.8,2.6c0,0.1,0,0.3,0,0.5h-2.4c0-0.1,0-0.2,0-0.2c0-0.5-0.3-1-1.4-1
		c-0.9,0-1.2,0.3-1.2,0.9s0.3,0.7,1,0.8l2,0.6c1.4,0.4,2.4,1.1,2.4,2.6c0,1.7-1.5,2.9-4.1,2.9c-3.5,0-4-1.8-4-2.8c0-0.1,0-0.3,0-0.4
		L104.5,6.3z"/>
	<polygon class="st0" points="112.7,0.1 115.2,0.1 115.2,3.8 119.1,3.8 119.1,0.1 121.6,0.1 121.6,9.4 119.1,9.4 119.1,5.7
		115.2,5.7 115.2,9.4 112.7,9.4 	"/>
	<rect x="124.9" y="0.1" class="st0" width="2.5" height="9.3"/>
	<path class="st0" d="M130.7,0.1h2.6l2.9,4.6c0.3,0.6,0.6,1.1,0.9,1.7h0.1c-0.1-0.7-0.2-1.4-0.2-2.2V0.1h2.5v9.3H137l-3-4.5
		c-0.3-0.6-0.7-1.2-0.9-1.8H133c0.1,0.7,0.2,1.5,0.2,2.3v4h-2.5L130.7,0.1z"/>
	<path class="st0" d="M148.8,6.3H147V4.8h4.4v4.7h-1.7l-0.2-1.2h-0.1c-0.7,0.9-1.9,1.4-3.1,1.4c-2.5,0-4.4-1.6-4.4-4.8
		s1.9-4.8,4.9-4.8c3.7,0,4.4,1.8,4.4,3.1c0,0.2,0,0.4-0.1,0.6h-2.6V3.5c0-1.1-0.6-1.6-1.8-1.6c-1.4,0-2.3,1.1-2.3,2.8s0.9,3,2.4,3
		C147.8,7.9,148.6,7.2,148.8,6.3"/>
	<polygon class="st0" points="155.8,2.1 152.9,2.1 152.9,0.1 161.2,0.1 161.2,2.1 158.3,2.1 158.3,9.4 155.8,9.4 	"/>
	<path class="st0" d="M162.3,4.8c0-3,1.7-4.8,4.9-4.8s4.9,1.8,4.9,4.8s-1.8,4.8-4.9,4.8S162.3,7.8,162.3,4.8 M169.5,4.8
		c0-1.9-0.8-2.8-2.3-2.8s-2.3,0.9-2.3,2.8s0.8,2.8,2.3,2.8S169.5,6.7,169.5,4.8"/>
	<path class="st0" d="M174.7,0.1h2.6l2.9,4.6c0.3,0.6,0.6,1.1,0.9,1.7h0.1c-0.1-0.7-0.2-1.4-0.2-2.2V0.1h2.5v9.3h-2.6l-3-4.5
		c-0.3-0.6-0.7-1.2-0.9-1.8h-0.1c0.1,0.7,0.2,1.5,0.2,2.3v4h-2.5L174.7,0.1z"/>
</g>
</svg>
