<svg xmlns="http://www.w3.org/2000/svg" xmlns:xlink="http://www.w3.org/1999/xlink" width="283" height="214" viewBox="0 0 283 214"><defs><path id="yyhea" d="M229.78 163.17l.08-.2-.08-.18c-.16-.41-.28-.77-.39-1.1-.46-1.34-.76-2.22-2.89-2.6a2.54 2.54 0 0 0-2.38.55c-1.05 1.1-.56 3.3-.09 5.44a17 17 0 0 1 .41 2.24c.15 4.58-.2 9.17-1.06 13.68a98.62 98.62 0 0 0-1.08 8.83v.5c-.12 1.63-.28 3.87.85 4.95.45.42 1.04.64 1.65.62h.4c3-.34 4.1-6.2 4.55-8.7v-.2c.74-4.2 1.08-8.46 1-12.72a29.61 29.61 0 0 0-.53-4.1c-.46-2.55-1-5.68-.44-7.01z"/><path id="yyheb" d="M119.87 208.87c-1.41-7.82-2.73-15.21-1.51-23.41.1-.56.3-1.1.58-1.6a5 5 0 0 0 .64-2c0-.63-.5-4.72-2.07-4.87-2.24-.18-3.25 3.39-3.67 4.92v.13c-2.67 9.58-2.22 19.66-1.38 26.42.33 2.59 1 8 4.08 10 .64.48 1.4.76 2.2.83.35 0 .7-.09 1-.28 1.19-.78 1.42-3.11.72-7.13a32.54 32.54 0 0 1-.59-3.01z"/><path id="yyhec" d="M288.45 103.59c-1.87-7.83-7.25-14.57-15.16-19-2.15-1.2-11.35-4.23-16.21-5.45-3.7-.93-6.26-.77-7.64.48-.95.86-1.31 2.2-1 4 .59 3 5.53 3.76 8.48 4.24.66.1 1.24.2 1.54.28l2.7.77c9.27 2.58 15.96 4.45 19.9 14.85 1 2.5-.12 8.85-1.06 14.44-1.27 7.57-2 12.27-.36 13.46.76.63 1.7 1 2.7 1.06.61 0 1.21-.2 1.72-.54 5.46-3.67 5-26.11 4.39-28.6z"/><path id="yyhed" d="M254.48 17.15c-.02-4.3-3-8-7.2-8.95-24-5.43-151.15.6-158.16 3-5.54 1.8-11.59 5.13-12.23 11.6-.32 3.2 6 25.4 8.25 34.1 1.31 6.92 2.01 13.94 2.1 21 .05 3.34-.2 6.69-.78 10a20.53 20.53 0 0 1-3.27 5.7c-2.39 2.63-6.28 5.71-9.53 5.84A5.67 5.67 0 0 1 70.23 98a6.22 6.22 0 0 1-.67-1c0-1.68 3.81-7 4.36-7.72a18 18 0 0 0 2.56-4.65C80 77 79.31 73.7 77 72a6.53 6.53 0 0 0-1.68-1.73 4.19 4.19 0 0 0-3.13-.52c-.58.08-1.15.19-1.72.34-4.3-.67-8.47-1.5-7.83-7.3 1.8-2.17 4.4-4.4 4.14-7.25.07-.76-.22-1.5-.78-2.02a5.31 5.31 0 0 0-1.55-1.46c-.45-.35-1-.73-1.58-1.14-5-3.38-14.89-2.39-21.48-4.72-5.49-3.4-12-9.1-18.32-12.45-1.06-.9-2.3-1.58-3.62-2-.93-.3-1.9-.46-2.87-.46a10.8 10.8 0 0 0-3.7-.08 5.29 5.29 0 0 0-5.62 3.47 9.14 9.14 0 0 0-1.1 5.22c-1.1 9.91 3.76 26.17 7.14 36.24 1.6 9.43 15.1 23.93 12.4 27.77-.07 1-.57 1.18-1.07 1.6a7.56 7.56 0 0 0-3.34 6.55c.15 1.69.76 3.3 1.78 4.65.42.85.95 1.64 1.57 2.35.43.46.94.83 1.52 1.08.72.5 1.24.96 1.7 1.5 1.55 2 1.61 2.52.1 3.77-1.5 1.25-6.82 13.91 5.9 21.08 3.17 2.66 9.12 2.07 12.72 1.24 1.5-.34 3-.82 4.42-1.3a5.94 5.94 0 0 1 1.9-.09c1.76.27 4.21 3.12 4.94 4.6 9.3 20.88 2.8 23.13 11.32 32.57 2.38 1.5 5.58 2.43 10 2.66 5 .37 10.03.2 15-.5 4.23-.34 54.24-6.1 84.95-15.95 7.8-2.45 15.85-4 24-4.63 7.82-1.18 34.84 1.44 50.31.16a6.78 6.78 0 0 0 6.2-6.8c-4.48-55.88-6.98-117.88-5.14-141.3z"/><path id="yyhee" d="M60.2 118.54c-.28 2.39-2.54 3.4-4.54 4.3-.84.34-1.64.76-2.39 1.27h-.07c-11 5.58-13.49 21.07-8.42 31.2a25.78 25.78 0 0 0 2.88 3.69c2.63 3 5.61 6.49 5.17 8.86-.14.76-.63 1.4-1.33 1.74a5 5 0 0 1-4.14.34c-5-1.68-8.87-9.9-9.6-11.54a36.48 36.48 0 0 1-3-18.78c.11-1.39.37-2.76.78-4.08a39.64 39.64 0 0 1 4.5-8.9l.34-.55c1.9-3.1 7.07-10.41 14.16-11.34 2.3-.31 3.92 0 4.85.9.72.78 1.01 1.85.8 2.89z"/><path id="yyhef" d="M118.45 57.4a.44.44 0 0 1-.12.15 1.19 1.19 0 0 1-1.9-.64c0-.13-.07-.27-.1-.4-.05-.26-.03-.53.05-.79.15-.4.34-.8.53-1.2.98-1.98 2.3-3.77 3.91-5.28 5.42-5.1 12-8.05 19.08-9.77.31-.01.63.01.93.06.3.25 1 .57 1.13 1.06.13.63 0 1.28-.36 1.8-.43.48-.98.82-1.6 1-2.66 1-5.42 1.76-8 2.93-5.49 2.5-10.4 5.68-13.55 11.08z"/><path id="yyheg" d="M226.15 50.23a.59.59 0 0 1-.51.26 3.2 3.2 0 0 1-1.23-.41A32.51 32.51 0 0 0 207 44.85c-.64-.06-1.28-.17-1.9-.34-.57-.13-.77-.49-.53-1s.41-.84.69-.93c.77-.22 1.55-.38 2.34-.48a33.1 33.1 0 0 1 16.5 4.7c.88.63 1.66 1.4 2.31 2.27.16.18-.11.78-.26 1.16z"/><path id="yyheh" d="M144.65 73.05c-.05.53-.2 1-.43 2.22a18.15 18.15 0 0 1-2.41 3.37 7.11 7.11 0 0 1-10.21-.22c-2.81-2.79-3.78-7.83-2.11-11.24a9.92 9.92 0 0 1 11.38-5.65c.76.23 1.43.7 1.91 1.32 1.92 3.05 2.22 6.64 1.87 10.2z"/><path id="yyhei" d="M193.52 109.33c-.25.35-.52.69-.81 1a41.56 41.56 0 0 1-27.51 11.76c-7.07-.18-13.36-1.78-18.85-5.87a3.8 3.8 0 0 1-1.54-4.07c.19-.9 1.1-1.64 1.87-1.38l.6.21c5.76 2.7 11.84 2.9 18 2.48a59.44 59.44 0 0 0 23.9-6.64c.58-.3 1.19-.57 1.79-.85 1.22-.55 1.9-.48 2.36.23a3 3 0 0 1 .19 3.13z"/><path id="yyhej" d="M215 74.14a32.07 32.07 0 0 1-3 6.32 7 7 0 0 1-5.34 2.32 7.17 7.17 0 0 1-5.26-2.57c-3-3.52-3.84-8.4-2.19-12.73 2.3-5.09 6.85-7.6 11.82-6.39.82.26 1.53.79 2 1.5 2.33 4.67 3.05 7.01 1.97 11.55z"/></defs><g><g transform="translate(-6 -6)"><g><g><use fill="#136c34" xlink:href="#yyhea"/></g><g><use fill="#136c34" xlink:href="#yyheb"/></g><g><use fill="#136c34" xlink:href="#yyhec"/></g><g><use fill="#9bcd3f" xlink:href="#yyhed"/></g><g><use fill="#136c34" xlink:href="#yyhee"/></g></g><g><use fill="#136c34" xlink:href="#yyhef"/></g><g><use fill="#136c34" xlink:href="#yyheg"/></g><g><use fill="#136c34" xlink:href="#yyheh"/></g><g><use fill="#136c34" xlink:href="#yyhei"/></g><g><use fill="#136c34" xlink:href="#yyhej"/></g></g></g></svg>